# xmcd
#
# Track frame offsets:
#	150
#	20600
#	40792
#	58362
#	80362
#	100937
#	124550
#	149387
#	177275
#	188262
#	206467
#	232037
#
# Disc length: 3411 seconds
#
# Revision: 1
# Processed by: cddbd v1.4PL0 Copyright (c) Steve Scherf et al.
# Submitted via: EasyCDDAExtractor 5.0.7
#
DISCID=9d0d510c
DTITLE=Say Zuzu - Highway Signs and Driving Songs
DYEAR=1900
DGENRE=Country
TTITLE0=Highway Signs
TTITLE1=Rain on the Mountain
TTITLE2=Merle
TTITLE3=Buxton
TTITLE4=Thirsty
TTITLE5=Diane
TTITLE6=Better Days
TTITLE7=B&M
TTITLE8=Abbey Sawyer Memorial Highway
TTITLE9=Snows
TTITLE10=November Rain
TTITLE11=The Driving Song
EXTD=
EXTT0=
EXTT1=
EXTT2=
EXTT3=
EXTT4=
EXTT5=
EXTT6=
EXTT7=
EXTT8=
EXTT9=
EXTT10=
EXTT11=
PLAYORDER=
